<mxfile host="65bd71144e">
    <diagram name="Page-1" id="13e1069c-82ec-6db2-03f1-153e76fe0fe0">
        <mxGraphModel dx="1734" dy="834" grid="1" gridSize="10" guides="1" tooltips="1" connect="1" arrows="1" fold="1" page="1" pageScale="1" pageWidth="1654" pageHeight="1169" background="none" math="0" shadow="0">
            <root>
                <mxCell id="0"/>
                <mxCell id="1" parent="0"/>
                <mxCell id="7baba1c4bc27f4b0-2" value=":Minio" style="shape=umlLifeline;perimeter=lifelinePerimeter;whiteSpace=wrap;html=1;container=1;collapsible=0;recursiveResize=0;outlineConnect=0;rounded=1;shadow=0;comic=0;labelBackgroundColor=none;strokeWidth=1;fontFamily=Verdana;fontSize=12;align=center;fillColor=#0050ef;fontColor=#ffffff;strokeColor=#001DBC;" parent="1" vertex="1">
                    <mxGeometry x="240" y="80" width="100" height="720" as="geometry"/>
                </mxCell>
                <mxCell id="7baba1c4bc27f4b0-10" value="" style="html=1;points=[];perimeter=orthogonalPerimeter;rounded=0;shadow=0;comic=0;labelBackgroundColor=none;strokeWidth=1;fontFamily=Verdana;fontSize=12;align=center;" parent="7baba1c4bc27f4b0-2" vertex="1">
                    <mxGeometry x="45" y="100" width="10" height="30" as="geometry"/>
                </mxCell>
                <mxCell id="XBzjlMROQdYjpLd7DVll-28" value="" style="html=1;points=[];perimeter=orthogonalPerimeter;rounded=0;shadow=0;comic=0;labelBackgroundColor=none;strokeWidth=1;fontFamily=Verdana;fontSize=12;align=center;" parent="7baba1c4bc27f4b0-2" vertex="1">
                    <mxGeometry x="45" y="260" width="10" height="32" as="geometry"/>
                </mxCell>
                <mxCell id="XBzjlMROQdYjpLd7DVll-41" value="" style="html=1;points=[];perimeter=orthogonalPerimeter;rounded=0;shadow=0;comic=0;labelBackgroundColor=none;strokeWidth=1;fontFamily=Verdana;fontSize=12;align=center;" parent="7baba1c4bc27f4b0-2" vertex="1">
                    <mxGeometry x="45" y="330" width="10" height="32" as="geometry"/>
                </mxCell>
                <mxCell id="XBzjlMROQdYjpLd7DVll-46" value="" style="html=1;points=[];perimeter=orthogonalPerimeter;rounded=0;shadow=0;comic=0;labelBackgroundColor=none;strokeWidth=1;fontFamily=Verdana;fontSize=12;align=center;" parent="7baba1c4bc27f4b0-2" vertex="1">
                    <mxGeometry x="45" y="380" width="10" height="32" as="geometry"/>
                </mxCell>
                <mxCell id="XBzjlMROQdYjpLd7DVll-115" value="" style="html=1;points=[];perimeter=orthogonalPerimeter;rounded=0;shadow=0;comic=0;labelBackgroundColor=none;strokeWidth=1;fontFamily=Verdana;fontSize=12;align=center;" parent="7baba1c4bc27f4b0-2" vertex="1">
                    <mxGeometry x="45" y="450" width="10" height="32" as="geometry"/>
                </mxCell>
                <mxCell id="XBzjlMROQdYjpLd7DVll-119" value="" style="html=1;points=[];perimeter=orthogonalPerimeter;rounded=0;shadow=0;comic=0;labelBackgroundColor=none;strokeWidth=1;fontFamily=Verdana;fontSize=12;align=center;" parent="7baba1c4bc27f4b0-2" vertex="1">
                    <mxGeometry x="45" y="520" width="10" height="32" as="geometry"/>
                </mxCell>
                <mxCell id="2" value="create / update image metadata" style="html=1;verticalAlign=bottom;endArrow=block;labelBackgroundColor=none;fontFamily=Verdana;fontSize=12;edgeStyle=elbowEdgeStyle;elbow=vertical;" edge="1" parent="7baba1c4bc27f4b0-2" target="XBzjlMROQdYjpLd7DVll-74">
                    <mxGeometry relative="1" as="geometry">
                        <mxPoint x="-90" y="150" as="sourcePoint"/>
                        <mxPoint x="40" y="150" as="targetPoint"/>
                    </mxGeometry>
                </mxCell>
                <mxCell id="7baba1c4bc27f4b0-3" value=":loader Exchange&lt;br&gt;(Fanout)" style="shape=umlLifeline;perimeter=lifelinePerimeter;whiteSpace=wrap;html=1;container=1;collapsible=0;recursiveResize=0;outlineConnect=0;rounded=1;shadow=0;comic=0;labelBackgroundColor=none;strokeWidth=1;fontFamily=Verdana;fontSize=12;align=center;fillColor=#a20025;fontColor=#ffffff;strokeColor=#6F0000;" parent="1" vertex="1">
                    <mxGeometry x="400" y="80" width="100" height="720" as="geometry"/>
                </mxCell>
                <mxCell id="XBzjlMROQdYjpLd7DVll-12" value="" style="html=1;points=[];perimeter=orthogonalPerimeter;rounded=0;shadow=0;comic=0;labelBackgroundColor=none;strokeWidth=1;fontFamily=Verdana;fontSize=12;align=center;" parent="7baba1c4bc27f4b0-3" vertex="1">
                    <mxGeometry x="45" y="210" width="10" height="32" as="geometry"/>
                </mxCell>
                <mxCell id="XBzjlMROQdYjpLd7DVll-16" value="" style="edgeStyle=none;orthogonalLoop=1;jettySize=auto;html=1;rounded=0;" parent="7baba1c4bc27f4b0-3" edge="1">
                    <mxGeometry width="80" relative="1" as="geometry">
                        <mxPoint x="60" y="220" as="sourcePoint"/>
                        <mxPoint x="189.5" y="220" as="targetPoint"/>
                        <Array as="points"/>
                    </mxGeometry>
                </mxCell>
                <mxCell id="XBzjlMROQdYjpLd7DVll-17" value="enqueue message" style="edgeLabel;html=1;align=center;verticalAlign=middle;resizable=0;points=[];" parent="XBzjlMROQdYjpLd7DVll-16" vertex="1" connectable="0">
                    <mxGeometry x="-0.2741" y="2" relative="1" as="geometry">
                        <mxPoint as="offset"/>
                    </mxGeometry>
                </mxCell>
                <mxCell id="XBzjlMROQdYjpLd7DVll-26" value="" style="edgeStyle=none;orthogonalLoop=1;jettySize=auto;html=1;rounded=0;dashed=1;" parent="7baba1c4bc27f4b0-3" edge="1">
                    <mxGeometry width="80" relative="1" as="geometry">
                        <mxPoint x="-110" y="290" as="sourcePoint"/>
                        <mxPoint x="469.5" y="290" as="targetPoint"/>
                        <Array as="points"/>
                    </mxGeometry>
                </mxCell>
                <mxCell id="XBzjlMROQdYjpLd7DVll-27" value="return" style="edgeLabel;html=1;align=center;verticalAlign=middle;resizable=0;points=[];" parent="XBzjlMROQdYjpLd7DVll-26" vertex="1" connectable="0">
                    <mxGeometry x="-0.2741" y="2" relative="1" as="geometry">
                        <mxPoint x="280" y="2" as="offset"/>
                    </mxGeometry>
                </mxCell>
                <mxCell id="7baba1c4bc27f4b0-4" value=":fileDigest Queue" style="shape=umlLifeline;perimeter=lifelinePerimeter;whiteSpace=wrap;html=1;container=1;collapsible=0;recursiveResize=0;outlineConnect=0;rounded=1;shadow=0;comic=0;labelBackgroundColor=none;strokeWidth=1;fontFamily=Verdana;fontSize=12;align=center;fillColor=#1ba1e2;fontColor=#ffffff;strokeColor=#006EAF;" parent="1" vertex="1">
                    <mxGeometry x="540" y="80" width="100" height="720" as="geometry"/>
                </mxCell>
                <mxCell id="XBzjlMROQdYjpLd7DVll-18" value="" style="edgeStyle=none;orthogonalLoop=1;jettySize=auto;html=1;rounded=0;" parent="7baba1c4bc27f4b0-4" edge="1">
                    <mxGeometry width="80" relative="1" as="geometry">
                        <mxPoint x="-80" y="233" as="sourcePoint"/>
                        <mxPoint x="189.5" y="233" as="targetPoint"/>
                        <Array as="points"/>
                    </mxGeometry>
                </mxCell>
                <mxCell id="XBzjlMROQdYjpLd7DVll-19" value="enqueue message" style="edgeLabel;html=1;align=center;verticalAlign=middle;resizable=0;points=[];" parent="XBzjlMROQdYjpLd7DVll-18" vertex="1" connectable="0">
                    <mxGeometry x="-0.2741" y="2" relative="1" as="geometry">
                        <mxPoint as="offset"/>
                    </mxGeometry>
                </mxCell>
                <mxCell id="7baba1c4bc27f4b0-5" value=":fileResize Queue" style="shape=umlLifeline;perimeter=lifelinePerimeter;whiteSpace=wrap;html=1;container=1;collapsible=0;recursiveResize=0;outlineConnect=0;rounded=1;shadow=0;comic=0;labelBackgroundColor=none;strokeWidth=1;fontFamily=Verdana;fontSize=12;align=center;fillColor=#1ba1e2;fontColor=#ffffff;strokeColor=#006EAF;" parent="1" vertex="1">
                    <mxGeometry x="680" y="80" width="100" height="720" as="geometry"/>
                </mxCell>
                <mxCell id="7baba1c4bc27f4b0-6" value=":MessageDigestHasher" style="shape=umlLifeline;perimeter=lifelinePerimeter;whiteSpace=wrap;html=1;container=1;collapsible=0;recursiveResize=0;outlineConnect=0;rounded=1;shadow=0;comic=0;labelBackgroundColor=none;strokeWidth=1;fontFamily=Verdana;fontSize=12;align=center;fillColor=#008a00;fontColor=#ffffff;strokeColor=#005700;" parent="1" vertex="1">
                    <mxGeometry x="820" y="80" width="100" height="720" as="geometry"/>
                </mxCell>
                <mxCell id="XBzjlMROQdYjpLd7DVll-22" value="" style="html=1;points=[];perimeter=orthogonalPerimeter;rounded=0;shadow=0;comic=0;labelBackgroundColor=none;strokeWidth=1;fontFamily=Verdana;fontSize=12;align=center;" parent="7baba1c4bc27f4b0-6" vertex="1">
                    <mxGeometry x="45" y="220" width="10" height="102" as="geometry"/>
                </mxCell>
                <mxCell id="XBzjlMROQdYjpLd7DVll-23" value="" style="edgeStyle=none;orthogonalLoop=1;jettySize=auto;html=1;rounded=0;endArrow=none;endFill=0;startArrow=classic;startFill=1;" parent="7baba1c4bc27f4b0-6" edge="1">
                    <mxGeometry width="80" relative="1" as="geometry">
                        <mxPoint x="-530.5" y="260" as="sourcePoint"/>
                        <mxPoint x="45" y="260" as="targetPoint"/>
                        <Array as="points"/>
                    </mxGeometry>
                </mxCell>
                <mxCell id="XBzjlMROQdYjpLd7DVll-24" value="load image" style="edgeLabel;html=1;align=center;verticalAlign=middle;resizable=0;points=[];" parent="XBzjlMROQdYjpLd7DVll-23" vertex="1" connectable="0">
                    <mxGeometry x="0.1451" y="-3" relative="1" as="geometry">
                        <mxPoint x="161" y="-3" as="offset"/>
                    </mxGeometry>
                </mxCell>
                <mxCell id="XBzjlMROQdYjpLd7DVll-39" value="" style="edgeStyle=none;orthogonalLoop=1;jettySize=auto;html=1;rounded=0;endArrow=none;endFill=0;startArrow=classic;startFill=1;" parent="7baba1c4bc27f4b0-6" edge="1">
                    <mxGeometry width="80" relative="1" as="geometry">
                        <mxPoint x="-530.5" y="329.5" as="sourcePoint"/>
                        <mxPoint x="305.5" y="329.5" as="targetPoint"/>
                        <Array as="points"/>
                    </mxGeometry>
                </mxCell>
                <mxCell id="XBzjlMROQdYjpLd7DVll-40" value="load image" style="edgeLabel;html=1;align=center;verticalAlign=middle;resizable=0;points=[];" parent="XBzjlMROQdYjpLd7DVll-39" vertex="1" connectable="0">
                    <mxGeometry x="0.1451" y="-3" relative="1" as="geometry">
                        <mxPoint x="282" y="-2" as="offset"/>
                    </mxGeometry>
                </mxCell>
                <mxCell id="XBzjlMROQdYjpLd7DVll-44" value="" style="edgeStyle=none;orthogonalLoop=1;jettySize=auto;html=1;rounded=0;endArrow=none;endFill=0;startArrow=classic;startFill=1;" parent="7baba1c4bc27f4b0-6" edge="1">
                    <mxGeometry width="80" relative="1" as="geometry">
                        <mxPoint x="-530" y="380" as="sourcePoint"/>
                        <mxPoint x="306" y="380" as="targetPoint"/>
                        <Array as="points"/>
                    </mxGeometry>
                </mxCell>
                <mxCell id="XBzjlMROQdYjpLd7DVll-45" value="store thumbnail" style="edgeLabel;html=1;align=center;verticalAlign=middle;resizable=0;points=[];" parent="XBzjlMROQdYjpLd7DVll-44" vertex="1" connectable="0">
                    <mxGeometry x="0.1451" y="-3" relative="1" as="geometry">
                        <mxPoint x="282" y="-2" as="offset"/>
                    </mxGeometry>
                </mxCell>
                <mxCell id="XBzjlMROQdYjpLd7DVll-111" value="" style="edgeStyle=none;orthogonalLoop=1;jettySize=auto;html=1;rounded=0;endArrow=none;endFill=0;startArrow=classic;startFill=1;" parent="7baba1c4bc27f4b0-6" edge="1">
                    <mxGeometry width="80" relative="1" as="geometry">
                        <mxPoint x="-530" y="450" as="sourcePoint"/>
                        <mxPoint x="306" y="450" as="targetPoint"/>
                        <Array as="points"/>
                    </mxGeometry>
                </mxCell>
                <mxCell id="XBzjlMROQdYjpLd7DVll-112" value="store&amp;nbsp;&lt;br&gt;preprocessed image" style="edgeLabel;html=1;align=center;verticalAlign=middle;resizable=0;points=[];" parent="XBzjlMROQdYjpLd7DVll-111" vertex="1" connectable="0">
                    <mxGeometry x="0.1451" y="-3" relative="1" as="geometry">
                        <mxPoint x="282" y="-2" as="offset"/>
                    </mxGeometry>
                </mxCell>
                <mxCell id="XBzjlMROQdYjpLd7DVll-113" value="" style="edgeStyle=none;orthogonalLoop=1;jettySize=auto;html=1;rounded=0;dashed=1;exitX=0.6;exitY=1.033;exitDx=0;exitDy=0;exitPerimeter=0;" parent="7baba1c4bc27f4b0-6" edge="1">
                    <mxGeometry width="80" relative="1" as="geometry">
                        <mxPoint x="-530" y="480" as="sourcePoint"/>
                        <mxPoint x="308.5" y="480" as="targetPoint"/>
                        <Array as="points"/>
                    </mxGeometry>
                </mxCell>
                <mxCell id="XBzjlMROQdYjpLd7DVll-114" value="return" style="edgeLabel;html=1;align=center;verticalAlign=middle;resizable=0;points=[];" parent="XBzjlMROQdYjpLd7DVll-113" vertex="1" connectable="0">
                    <mxGeometry x="-0.2741" y="2" relative="1" as="geometry">
                        <mxPoint x="455" y="1" as="offset"/>
                    </mxGeometry>
                </mxCell>
                <mxCell id="7baba1c4bc27f4b0-7" value=":hashes queue" style="shape=umlLifeline;perimeter=lifelinePerimeter;whiteSpace=wrap;html=1;container=1;collapsible=0;recursiveResize=0;outlineConnect=0;rounded=1;shadow=0;comic=0;labelBackgroundColor=none;strokeWidth=1;fontFamily=Verdana;fontSize=12;align=center;fillColor=#1ba1e2;fontColor=#ffffff;strokeColor=#006EAF;" parent="1" vertex="1">
                    <mxGeometry x="960" y="80" width="100" height="720" as="geometry"/>
                </mxCell>
                <mxCell id="XBzjlMROQdYjpLd7DVll-29" value="" style="edgeStyle=none;orthogonalLoop=1;jettySize=auto;html=1;rounded=0;entryX=0.5;entryY=0.448;entryDx=0;entryDy=0;entryPerimeter=0;" parent="7baba1c4bc27f4b0-7" edge="1">
                    <mxGeometry width="80" relative="1" as="geometry">
                        <mxPoint x="-85" y="311" as="sourcePoint"/>
                        <mxPoint x="50" y="310.84000000000015" as="targetPoint"/>
                        <Array as="points"/>
                    </mxGeometry>
                </mxCell>
                <mxCell id="XBzjlMROQdYjpLd7DVll-30" value="enqueue message" style="edgeLabel;html=1;align=center;verticalAlign=middle;resizable=0;points=[];" parent="XBzjlMROQdYjpLd7DVll-29" vertex="1" connectable="0">
                    <mxGeometry x="-0.2741" y="2" relative="1" as="geometry">
                        <mxPoint x="16" as="offset"/>
                    </mxGeometry>
                </mxCell>
                <mxCell id="XBzjlMROQdYjpLd7DVll-36" value="" style="edgeStyle=none;orthogonalLoop=1;jettySize=auto;html=1;rounded=0;" parent="7baba1c4bc27f4b0-7" edge="1">
                    <mxGeometry width="80" relative="1" as="geometry">
                        <mxPoint x="-229.75" y="234" as="sourcePoint"/>
                        <mxPoint x="169.5" y="234" as="targetPoint"/>
                        <Array as="points"/>
                    </mxGeometry>
                </mxCell>
                <mxCell id="XBzjlMROQdYjpLd7DVll-37" value="dequeue message" style="edgeLabel;html=1;align=center;verticalAlign=middle;resizable=0;points=[];" parent="XBzjlMROQdYjpLd7DVll-36" vertex="1" connectable="0">
                    <mxGeometry x="0.1234" y="-1" relative="1" as="geometry">
                        <mxPoint as="offset"/>
                    </mxGeometry>
                </mxCell>
                <mxCell id="7baba1c4bc27f4b0-8" value="#FileToQueueVisitor" style="shape=umlLifeline;perimeter=lifelinePerimeter;whiteSpace=wrap;html=1;container=1;collapsible=0;recursiveResize=0;outlineConnect=0;rounded=1;shadow=0;comic=0;labelBackgroundColor=none;strokeWidth=1;fontFamily=Verdana;fontSize=12;align=center;fillColor=#008a00;fontColor=#ffffff;strokeColor=#005700;" parent="1" vertex="1">
                    <mxGeometry x="100" y="80" width="100" height="720" as="geometry"/>
                </mxCell>
                <mxCell id="7baba1c4bc27f4b0-9" value="" style="html=1;points=[];perimeter=orthogonalPerimeter;rounded=0;shadow=0;comic=0;labelBackgroundColor=none;strokeWidth=1;fontFamily=Verdana;fontSize=12;align=center;" parent="7baba1c4bc27f4b0-8" vertex="1">
                    <mxGeometry x="45" y="100" width="10" height="110" as="geometry"/>
                </mxCell>
                <mxCell id="XBzjlMROQdYjpLd7DVll-10" value="" style="edgeStyle=none;orthogonalLoop=1;jettySize=auto;html=1;rounded=0;" parent="7baba1c4bc27f4b0-8" edge="1">
                    <mxGeometry width="80" relative="1" as="geometry">
                        <mxPoint x="55" y="210" as="sourcePoint"/>
                        <mxPoint x="349.5" y="210" as="targetPoint"/>
                        <Array as="points"/>
                    </mxGeometry>
                </mxCell>
                <mxCell id="XBzjlMROQdYjpLd7DVll-13" value="enqueue message" style="edgeLabel;html=1;align=center;verticalAlign=middle;resizable=0;points=[];" parent="XBzjlMROQdYjpLd7DVll-10" vertex="1" connectable="0">
                    <mxGeometry x="0.0866" relative="1" as="geometry">
                        <mxPoint as="offset"/>
                    </mxGeometry>
                </mxCell>
                <mxCell id="4" style="edgeStyle=none;rounded=0;orthogonalLoop=1;jettySize=auto;html=1;dashed=1;" edge="1" parent="7baba1c4bc27f4b0-8" source="XBzjlMROQdYjpLd7DVll-74">
                    <mxGeometry relative="1" as="geometry">
                        <mxPoint x="55" y="170.99" as="targetPoint"/>
                        <mxPoint x="194" y="170" as="sourcePoint"/>
                        <Array as="points">
                            <mxPoint x="1460" y="180"/>
                        </Array>
                    </mxGeometry>
                </mxCell>
                <mxCell id="5" value="return" style="edgeLabel;html=1;align=center;verticalAlign=middle;resizable=0;points=[];" vertex="1" connectable="0" parent="4">
                    <mxGeometry x="-0.2805" y="1" relative="1" as="geometry">
                        <mxPoint x="-239" as="offset"/>
                    </mxGeometry>
                </mxCell>
                <mxCell id="7baba1c4bc27f4b0-11" value="store image" style="html=1;verticalAlign=bottom;endArrow=block;entryX=0;entryY=0;labelBackgroundColor=none;fontFamily=Verdana;fontSize=12;edgeStyle=elbowEdgeStyle;elbow=vertical;" parent="1" source="7baba1c4bc27f4b0-9" target="7baba1c4bc27f4b0-10" edge="1">
                    <mxGeometry relative="1" as="geometry">
                        <mxPoint x="220" y="190" as="sourcePoint"/>
                    </mxGeometry>
                </mxCell>
                <mxCell id="XBzjlMROQdYjpLd7DVll-8" style="edgeStyle=none;rounded=0;orthogonalLoop=1;jettySize=auto;html=1;exitX=0.4;exitY=0.967;exitDx=0;exitDy=0;exitPerimeter=0;dashed=1;" parent="1" edge="1">
                    <mxGeometry relative="1" as="geometry">
                        <mxPoint x="160" y="210" as="targetPoint"/>
                        <mxPoint x="289" y="209.01" as="sourcePoint"/>
                    </mxGeometry>
                </mxCell>
                <mxCell id="XBzjlMROQdYjpLd7DVll-9" value="return" style="edgeLabel;html=1;align=center;verticalAlign=middle;resizable=0;points=[];" parent="XBzjlMROQdYjpLd7DVll-8" vertex="1" connectable="0">
                    <mxGeometry x="-0.2805" y="1" relative="1" as="geometry">
                        <mxPoint x="-19" as="offset"/>
                    </mxGeometry>
                </mxCell>
                <mxCell id="XBzjlMROQdYjpLd7DVll-20" value="" style="edgeStyle=none;orthogonalLoop=1;jettySize=auto;html=1;rounded=0;" parent="1" edge="1">
                    <mxGeometry width="80" relative="1" as="geometry">
                        <mxPoint x="590" y="300" as="sourcePoint"/>
                        <mxPoint x="869.5" y="300" as="targetPoint"/>
                        <Array as="points"/>
                    </mxGeometry>
                </mxCell>
                <mxCell id="XBzjlMROQdYjpLd7DVll-21" value="dequeue message" style="edgeLabel;html=1;align=center;verticalAlign=middle;resizable=0;points=[];" parent="XBzjlMROQdYjpLd7DVll-20" vertex="1" connectable="0">
                    <mxGeometry x="0.1234" y="-1" relative="1" as="geometry">
                        <mxPoint as="offset"/>
                    </mxGeometry>
                </mxCell>
                <mxCell id="XBzjlMROQdYjpLd7DVll-31" value=":ImageResizer" style="shape=umlLifeline;perimeter=lifelinePerimeter;whiteSpace=wrap;html=1;container=1;collapsible=0;recursiveResize=0;outlineConnect=0;rounded=1;shadow=0;comic=0;labelBackgroundColor=none;strokeWidth=1;fontFamily=Verdana;fontSize=12;align=center;fillColor=#008a00;fontColor=#ffffff;strokeColor=#005700;" parent="1" vertex="1">
                    <mxGeometry x="1080" y="80" width="100" height="720" as="geometry"/>
                </mxCell>
                <mxCell id="XBzjlMROQdYjpLd7DVll-38" value="" style="html=1;points=[];perimeter=orthogonalPerimeter;rounded=0;shadow=0;comic=0;labelBackgroundColor=none;strokeWidth=1;fontFamily=Verdana;fontSize=12;align=center;" parent="XBzjlMROQdYjpLd7DVll-31" vertex="1">
                    <mxGeometry x="45" y="235" width="10" height="277" as="geometry"/>
                </mxCell>
                <mxCell id="XBzjlMROQdYjpLd7DVll-70" value="" style="edgeStyle=none;orthogonalLoop=1;jettySize=auto;html=1;rounded=0;exitX=1.2;exitY=0.961;exitDx=0;exitDy=0;exitPerimeter=0;" parent="XBzjlMROQdYjpLd7DVll-31" edge="1">
                    <mxGeometry width="80" relative="1" as="geometry">
                        <mxPoint x="55" y="499.9950000000001" as="sourcePoint"/>
                        <mxPoint x="287.5" y="499.9950000000001" as="targetPoint"/>
                        <Array as="points"/>
                    </mxGeometry>
                </mxCell>
                <mxCell id="XBzjlMROQdYjpLd7DVll-71" value="enqueue message" style="edgeLabel;html=1;align=center;verticalAlign=middle;resizable=0;points=[];" parent="XBzjlMROQdYjpLd7DVll-70" vertex="1" connectable="0">
                    <mxGeometry x="-0.2741" y="2" relative="1" as="geometry">
                        <mxPoint x="16" as="offset"/>
                    </mxGeometry>
                </mxCell>
                <mxCell id="XBzjlMROQdYjpLd7DVll-42" value="" style="edgeStyle=none;orthogonalLoop=1;jettySize=auto;html=1;rounded=0;dashed=1;exitX=0.6;exitY=1.033;exitDx=0;exitDy=0;exitPerimeter=0;" parent="1" source="XBzjlMROQdYjpLd7DVll-41" edge="1">
                    <mxGeometry width="80" relative="1" as="geometry">
                        <mxPoint x="300" y="440" as="sourcePoint"/>
                        <mxPoint x="1129.5" y="443.05600000000004" as="targetPoint"/>
                        <Array as="points"/>
                    </mxGeometry>
                </mxCell>
                <mxCell id="XBzjlMROQdYjpLd7DVll-43" value="return" style="edgeLabel;html=1;align=center;verticalAlign=middle;resizable=0;points=[];" parent="XBzjlMROQdYjpLd7DVll-42" vertex="1" connectable="0">
                    <mxGeometry x="-0.2741" y="2" relative="1" as="geometry">
                        <mxPoint x="455" y="1" as="offset"/>
                    </mxGeometry>
                </mxCell>
                <mxCell id="XBzjlMROQdYjpLd7DVll-47" value="" style="edgeStyle=none;orthogonalLoop=1;jettySize=auto;html=1;rounded=0;dashed=1;exitX=0.6;exitY=1.033;exitDx=0;exitDy=0;exitPerimeter=0;" parent="1" edge="1">
                    <mxGeometry width="80" relative="1" as="geometry">
                        <mxPoint x="290" y="490" as="sourcePoint"/>
                        <mxPoint x="1128.5" y="490" as="targetPoint"/>
                        <Array as="points"/>
                    </mxGeometry>
                </mxCell>
                <mxCell id="XBzjlMROQdYjpLd7DVll-48" value="return" style="edgeLabel;html=1;align=center;verticalAlign=middle;resizable=0;points=[];" parent="XBzjlMROQdYjpLd7DVll-47" vertex="1" connectable="0">
                    <mxGeometry x="-0.2741" y="2" relative="1" as="geometry">
                        <mxPoint x="455" y="1" as="offset"/>
                    </mxGeometry>
                </mxCell>
                <mxCell id="XBzjlMROQdYjpLd7DVll-49" value=":thumbnail queue" style="shape=umlLifeline;perimeter=lifelinePerimeter;whiteSpace=wrap;html=1;container=1;collapsible=0;recursiveResize=0;outlineConnect=0;rounded=1;shadow=0;comic=0;labelBackgroundColor=none;strokeWidth=1;fontFamily=Verdana;fontSize=12;align=center;fillColor=#1ba1e2;fontColor=#ffffff;strokeColor=#006EAF;" parent="1" vertex="1">
                    <mxGeometry x="1200" y="80" width="100" height="720" as="geometry"/>
                </mxCell>
                <mxCell id="XBzjlMROQdYjpLd7DVll-64" value="" style="edgeStyle=none;orthogonalLoop=1;jettySize=auto;html=1;rounded=0;" parent="XBzjlMROQdYjpLd7DVll-49" edge="1">
                    <mxGeometry width="80" relative="1" as="geometry">
                        <mxPoint x="-65" y="420.15999999999997" as="sourcePoint"/>
                        <mxPoint x="50" y="420" as="targetPoint"/>
                        <Array as="points"/>
                    </mxGeometry>
                </mxCell>
                <mxCell id="XBzjlMROQdYjpLd7DVll-65" value="enqueue message" style="edgeLabel;html=1;align=center;verticalAlign=middle;resizable=0;points=[];" parent="XBzjlMROQdYjpLd7DVll-64" vertex="1" connectable="0">
                    <mxGeometry x="-0.2741" y="2" relative="1" as="geometry">
                        <mxPoint x="16" as="offset"/>
                    </mxGeometry>
                </mxCell>
                <mxCell id="XBzjlMROQdYjpLd7DVll-66" value=":FilePreProcessed queue" style="shape=umlLifeline;perimeter=lifelinePerimeter;whiteSpace=wrap;html=1;container=1;collapsible=0;recursiveResize=0;outlineConnect=0;rounded=1;shadow=0;comic=0;labelBackgroundColor=none;strokeWidth=1;fontFamily=Verdana;fontSize=12;align=center;fillColor=#1ba1e2;fontColor=#ffffff;strokeColor=#006EAF;" parent="1" vertex="1">
                    <mxGeometry x="1320" y="80" width="100" height="720" as="geometry"/>
                </mxCell>
                <mxCell id="XBzjlMROQdYjpLd7DVll-72" value=":DBNode" style="shape=umlLifeline;perimeter=lifelinePerimeter;whiteSpace=wrap;html=1;container=1;collapsible=0;recursiveResize=0;outlineConnect=0;rounded=1;shadow=0;comic=0;labelBackgroundColor=none;strokeWidth=1;fontFamily=Verdana;fontSize=12;align=center;fillColor=#008a00;fontColor=#ffffff;strokeColor=#005700;" parent="1" vertex="1">
                    <mxGeometry x="1440" y="80" width="100" height="720" as="geometry"/>
                </mxCell>
                <mxCell id="XBzjlMROQdYjpLd7DVll-77" value="" style="html=1;points=[];perimeter=orthogonalPerimeter;rounded=0;shadow=0;comic=0;labelBackgroundColor=none;strokeWidth=1;fontFamily=Verdana;fontSize=12;align=center;" parent="XBzjlMROQdYjpLd7DVll-72" vertex="1">
                    <mxGeometry x="45" y="420" width="10" height="42" as="geometry"/>
                </mxCell>
                <mxCell id="XBzjlMROQdYjpLd7DVll-78" value="" style="edgeStyle=none;orthogonalLoop=1;jettySize=auto;html=1;rounded=0;startArrow=none;startFill=0;endArrow=classic;endFill=1;" parent="XBzjlMROQdYjpLd7DVll-72" edge="1">
                    <mxGeometry width="80" relative="1" as="geometry">
                        <mxPoint x="55" y="440" as="sourcePoint"/>
                        <mxPoint x="189.5" y="440" as="targetPoint"/>
                        <Array as="points"/>
                    </mxGeometry>
                </mxCell>
                <mxCell id="XBzjlMROQdYjpLd7DVll-80" value="update&lt;br&gt;image metadata" style="edgeLabel;html=1;align=center;verticalAlign=middle;resizable=0;points=[];" parent="XBzjlMROQdYjpLd7DVll-78" vertex="1" connectable="0">
                    <mxGeometry x="0.1878" y="-2" relative="1" as="geometry">
                        <mxPoint x="-15" y="-2" as="offset"/>
                    </mxGeometry>
                </mxCell>
                <mxCell id="XBzjlMROQdYjpLd7DVll-117" value="" style="edgeStyle=none;orthogonalLoop=1;jettySize=auto;html=1;rounded=0;endArrow=none;endFill=0;startArrow=classic;startFill=1;" parent="XBzjlMROQdYjpLd7DVll-72" edge="1">
                    <mxGeometry width="80" relative="1" as="geometry">
                        <mxPoint x="-1150.5" y="520" as="sourcePoint"/>
                        <mxPoint x="336" y="520" as="targetPoint"/>
                        <Array as="points"/>
                    </mxGeometry>
                </mxCell>
                <mxCell id="XBzjlMROQdYjpLd7DVll-118" value="load&amp;nbsp;&lt;br&gt;preprocessed image" style="edgeLabel;html=1;align=center;verticalAlign=middle;resizable=0;points=[];" parent="XBzjlMROQdYjpLd7DVll-117" vertex="1" connectable="0">
                    <mxGeometry x="0.1451" y="-3" relative="1" as="geometry">
                        <mxPoint x="282" y="-2" as="offset"/>
                    </mxGeometry>
                </mxCell>
                <mxCell id="XBzjlMROQdYjpLd7DVll-126" value="" style="html=1;points=[];perimeter=orthogonalPerimeter;rounded=0;shadow=0;comic=0;labelBackgroundColor=none;strokeWidth=1;fontFamily=Verdana;fontSize=12;align=center;" parent="XBzjlMROQdYjpLd7DVll-72" vertex="1">
                    <mxGeometry x="45" y="670" width="10" height="42" as="geometry"/>
                </mxCell>
                <mxCell id="XBzjlMROQdYjpLd7DVll-74" value=":MongoDB" style="shape=umlLifeline;perimeter=lifelinePerimeter;whiteSpace=wrap;html=1;container=1;collapsible=0;recursiveResize=0;outlineConnect=0;rounded=1;shadow=0;comic=0;labelBackgroundColor=none;strokeWidth=1;fontFamily=Verdana;fontSize=12;align=center;fillColor=#0050ef;fontColor=#ffffff;strokeColor=#001DBC;" parent="1" vertex="1">
                    <mxGeometry x="1580" y="80" width="100" height="720" as="geometry"/>
                </mxCell>
                <mxCell id="XBzjlMROQdYjpLd7DVll-81" value="" style="html=1;points=[];perimeter=orthogonalPerimeter;rounded=0;shadow=0;comic=0;labelBackgroundColor=none;strokeWidth=1;fontFamily=Verdana;fontSize=12;align=center;" parent="XBzjlMROQdYjpLd7DVll-74" vertex="1">
                    <mxGeometry x="45" y="440" width="10" height="22" as="geometry"/>
                </mxCell>
                <mxCell id="XBzjlMROQdYjpLd7DVll-82" value="" style="edgeStyle=none;orthogonalLoop=1;jettySize=auto;html=1;rounded=0;startArrow=none;startFill=0;endArrow=classic;endFill=1;dashed=1;" parent="XBzjlMROQdYjpLd7DVll-74" target="XBzjlMROQdYjpLd7DVll-77" edge="1">
                    <mxGeometry width="80" relative="1" as="geometry">
                        <mxPoint x="43" y="460" as="sourcePoint"/>
                        <mxPoint x="-77.5" y="460" as="targetPoint"/>
                        <Array as="points"/>
                    </mxGeometry>
                </mxCell>
                <mxCell id="XBzjlMROQdYjpLd7DVll-83" value="return" style="edgeLabel;html=1;align=center;verticalAlign=middle;resizable=0;points=[];" parent="XBzjlMROQdYjpLd7DVll-82" vertex="1" connectable="0">
                    <mxGeometry x="0.2656" y="3" relative="1" as="geometry">
                        <mxPoint x="28" y="7" as="offset"/>
                    </mxGeometry>
                </mxCell>
                <mxCell id="XBzjlMROQdYjpLd7DVll-127" value="" style="html=1;points=[];perimeter=orthogonalPerimeter;rounded=0;shadow=0;comic=0;labelBackgroundColor=none;strokeWidth=1;fontFamily=Verdana;fontSize=12;align=center;" parent="XBzjlMROQdYjpLd7DVll-74" vertex="1">
                    <mxGeometry x="45" y="680" width="10" height="22" as="geometry"/>
                </mxCell>
                <mxCell id="XBzjlMROQdYjpLd7DVll-130" value="" style="edgeStyle=none;orthogonalLoop=1;jettySize=auto;html=1;rounded=0;startArrow=none;startFill=0;endArrow=classic;endFill=1;dashed=1;" parent="XBzjlMROQdYjpLd7DVll-74" edge="1">
                    <mxGeometry width="80" relative="1" as="geometry">
                        <mxPoint x="38" y="700" as="sourcePoint"/>
                        <mxPoint x="-90" y="700" as="targetPoint"/>
                        <Array as="points"/>
                    </mxGeometry>
                </mxCell>
                <mxCell id="XBzjlMROQdYjpLd7DVll-131" value="return" style="edgeLabel;html=1;align=center;verticalAlign=middle;resizable=0;points=[];" parent="XBzjlMROQdYjpLd7DVll-130" vertex="1" connectable="0">
                    <mxGeometry x="0.2656" y="3" relative="1" as="geometry">
                        <mxPoint x="28" y="7" as="offset"/>
                    </mxGeometry>
                </mxCell>
                <mxCell id="6" value="" style="html=1;points=[];perimeter=orthogonalPerimeter;rounded=0;shadow=0;comic=0;labelBackgroundColor=none;strokeWidth=1;fontFamily=Verdana;fontSize=12;align=center;" vertex="1" parent="XBzjlMROQdYjpLd7DVll-74">
                    <mxGeometry x="45" y="150" width="10" height="32" as="geometry"/>
                </mxCell>
                <mxCell id="XBzjlMROQdYjpLd7DVll-75" value="" style="edgeStyle=none;orthogonalLoop=1;jettySize=auto;html=1;rounded=0;" parent="1" edge="1">
                    <mxGeometry width="80" relative="1" as="geometry">
                        <mxPoint x="1250" y="500" as="sourcePoint"/>
                        <mxPoint x="1490" y="500" as="targetPoint"/>
                        <Array as="points"/>
                    </mxGeometry>
                </mxCell>
                <mxCell id="XBzjlMROQdYjpLd7DVll-76" value="dequeue message" style="edgeLabel;html=1;align=center;verticalAlign=middle;resizable=0;points=[];" parent="XBzjlMROQdYjpLd7DVll-75" vertex="1" connectable="0">
                    <mxGeometry x="0.1234" y="-1" relative="1" as="geometry">
                        <mxPoint as="offset"/>
                    </mxGeometry>
                </mxCell>
                <mxCell id="XBzjlMROQdYjpLd7DVll-84" value=":CustomHashProcessor" style="shape=umlLifeline;perimeter=lifelinePerimeter;whiteSpace=wrap;html=1;container=1;collapsible=0;recursiveResize=0;outlineConnect=0;rounded=1;shadow=0;comic=0;labelBackgroundColor=none;strokeWidth=1;fontFamily=Verdana;fontSize=12;align=center;fillColor=#008a00;fontColor=#ffffff;strokeColor=#005700;" parent="1" vertex="1">
                    <mxGeometry x="1730" y="80" width="100" height="720" as="geometry"/>
                </mxCell>
                <mxCell id="XBzjlMROQdYjpLd7DVll-116" value="" style="html=1;points=[];perimeter=orthogonalPerimeter;rounded=0;shadow=0;comic=0;labelBackgroundColor=none;strokeWidth=1;fontFamily=Verdana;fontSize=12;align=center;" parent="XBzjlMROQdYjpLd7DVll-84" vertex="1">
                    <mxGeometry x="45" y="500" width="10" height="102" as="geometry"/>
                </mxCell>
                <mxCell id="XBzjlMROQdYjpLd7DVll-122" value="" style="edgeStyle=none;orthogonalLoop=1;jettySize=auto;html=1;rounded=0;" parent="XBzjlMROQdYjpLd7DVll-84" edge="1">
                    <mxGeometry width="80" relative="1" as="geometry">
                        <mxPoint x="40" y="570.16" as="sourcePoint"/>
                        <mxPoint x="-720.5" y="570.1599999999999" as="targetPoint"/>
                        <Array as="points"/>
                    </mxGeometry>
                </mxCell>
                <mxCell id="XBzjlMROQdYjpLd7DVll-123" value="enqueue message" style="edgeLabel;html=1;align=center;verticalAlign=middle;resizable=0;points=[];" parent="XBzjlMROQdYjpLd7DVll-122" vertex="1" connectable="0">
                    <mxGeometry x="-0.2741" y="2" relative="1" as="geometry">
                        <mxPoint x="16" as="offset"/>
                    </mxGeometry>
                </mxCell>
                <mxCell id="XBzjlMROQdYjpLd7DVll-88" value="" style="edgeStyle=none;orthogonalLoop=1;jettySize=auto;html=1;rounded=0;" parent="1" edge="1">
                    <mxGeometry width="80" relative="1" as="geometry">
                        <mxPoint x="1369.5" y="581" as="sourcePoint"/>
                        <mxPoint x="1779.5" y="581" as="targetPoint"/>
                        <Array as="points">
                            <mxPoint x="1500" y="581"/>
                        </Array>
                    </mxGeometry>
                </mxCell>
                <mxCell id="XBzjlMROQdYjpLd7DVll-89" value="dequeue message" style="edgeLabel;html=1;align=center;verticalAlign=middle;resizable=0;points=[];" parent="XBzjlMROQdYjpLd7DVll-88" vertex="1" connectable="0">
                    <mxGeometry x="0.1234" y="-1" relative="1" as="geometry">
                        <mxPoint as="offset"/>
                    </mxGeometry>
                </mxCell>
                <mxCell id="XBzjlMROQdYjpLd7DVll-120" value="" style="edgeStyle=none;orthogonalLoop=1;jettySize=auto;html=1;rounded=0;dashed=1;exitX=0.6;exitY=1.033;exitDx=0;exitDy=0;exitPerimeter=0;" parent="1" edge="1">
                    <mxGeometry width="80" relative="1" as="geometry">
                        <mxPoint x="300" y="625" as="sourcePoint"/>
                        <mxPoint x="1770" y="625" as="targetPoint"/>
                        <Array as="points"/>
                    </mxGeometry>
                </mxCell>
                <mxCell id="XBzjlMROQdYjpLd7DVll-121" value="return" style="edgeLabel;html=1;align=center;verticalAlign=middle;resizable=0;points=[];" parent="XBzjlMROQdYjpLd7DVll-120" vertex="1" connectable="0">
                    <mxGeometry x="-0.2741" y="2" relative="1" as="geometry">
                        <mxPoint x="455" y="1" as="offset"/>
                    </mxGeometry>
                </mxCell>
                <mxCell id="XBzjlMROQdYjpLd7DVll-124" value="" style="edgeStyle=none;orthogonalLoop=1;jettySize=auto;html=1;rounded=0;" parent="1" edge="1">
                    <mxGeometry width="80" relative="1" as="geometry">
                        <mxPoint x="1010" y="750" as="sourcePoint"/>
                        <mxPoint x="1489.5" y="750" as="targetPoint"/>
                        <Array as="points"/>
                    </mxGeometry>
                </mxCell>
                <mxCell id="XBzjlMROQdYjpLd7DVll-125" value="dequeue message" style="edgeLabel;html=1;align=center;verticalAlign=middle;resizable=0;points=[];" parent="XBzjlMROQdYjpLd7DVll-124" vertex="1" connectable="0">
                    <mxGeometry x="0.1234" y="-1" relative="1" as="geometry">
                        <mxPoint as="offset"/>
                    </mxGeometry>
                </mxCell>
                <mxCell id="XBzjlMROQdYjpLd7DVll-128" value="" style="edgeStyle=none;orthogonalLoop=1;jettySize=auto;html=1;rounded=0;startArrow=none;startFill=0;endArrow=classic;endFill=1;" parent="1" edge="1">
                    <mxGeometry width="80" relative="1" as="geometry">
                        <mxPoint x="1495" y="760" as="sourcePoint"/>
                        <mxPoint x="1629.5" y="760" as="targetPoint"/>
                        <Array as="points"/>
                    </mxGeometry>
                </mxCell>
                <mxCell id="XBzjlMROQdYjpLd7DVll-129" value="update&lt;br&gt;image metadata" style="edgeLabel;html=1;align=center;verticalAlign=middle;resizable=0;points=[];" parent="XBzjlMROQdYjpLd7DVll-128" vertex="1" connectable="0">
                    <mxGeometry x="0.1878" y="-2" relative="1" as="geometry">
                        <mxPoint x="-15" y="-2" as="offset"/>
                    </mxGeometry>
                </mxCell>
            </root>
        </mxGraphModel>
    </diagram>
</mxfile>